<mxfile host="app.diagrams.net" modified="2021-06-08T08:17:19.413Z" agent="5.0 (Macintosh; Intel Mac OS X 10_15_7) AppleWebKit/537.36 (KHTML, like Gecko) Chrome/90.0.4430.212 Safari/537.36 Edg/90.0.818.62" etag="8Wh7G3C2fkK-NMnXyEBM" version="14.7.3" type="github">
  <diagram id="t0_Folrv1_VI19pWNrxG" name="第 1 页">
    <mxGraphModel dx="1102" dy="550" grid="0" gridSize="10" guides="1" tooltips="1" connect="1" arrows="1" fold="1" page="1" pageScale="1" pageWidth="1200" pageHeight="1920" math="1" shadow="0">
      <root>
        <mxCell id="0" />
        <mxCell id="1" parent="0" />
        <mxCell id="ySu2Nr1dZMbkxiKEu1m7-1" value="" style="ellipse;whiteSpace=wrap;html=1;aspect=fixed;" vertex="1" parent="1">
          <mxGeometry x="390" y="190" width="30" height="30" as="geometry" />
        </mxCell>
        <mxCell id="ySu2Nr1dZMbkxiKEu1m7-2" value="左子树&lt;br&gt;Key &amp;lt; x" style="ellipse;whiteSpace=wrap;html=1;" vertex="1" parent="1">
          <mxGeometry x="210" y="250" width="160" height="110" as="geometry" />
        </mxCell>
        <mxCell id="ySu2Nr1dZMbkxiKEu1m7-3" value="右子树&lt;br&gt;Key &amp;gt; x" style="ellipse;whiteSpace=wrap;html=1;" vertex="1" parent="1">
          <mxGeometry x="430" y="250" width="160" height="110" as="geometry" />
        </mxCell>
        <mxCell id="ySu2Nr1dZMbkxiKEu1m7-4" value="" style="endArrow=none;html=1;entryX=0;entryY=1;entryDx=0;entryDy=0;exitX=0.5;exitY=0;exitDx=0;exitDy=0;" edge="1" parent="1" source="ySu2Nr1dZMbkxiKEu1m7-2" target="ySu2Nr1dZMbkxiKEu1m7-1">
          <mxGeometry width="50" height="50" relative="1" as="geometry">
            <mxPoint x="388" y="337" as="sourcePoint" />
            <mxPoint x="438" y="287" as="targetPoint" />
          </mxGeometry>
        </mxCell>
        <mxCell id="ySu2Nr1dZMbkxiKEu1m7-5" value="" style="endArrow=none;html=1;entryX=1;entryY=1;entryDx=0;entryDy=0;exitX=0.5;exitY=0;exitDx=0;exitDy=0;" edge="1" parent="1" source="ySu2Nr1dZMbkxiKEu1m7-3" target="ySu2Nr1dZMbkxiKEu1m7-1">
          <mxGeometry width="50" height="50" relative="1" as="geometry">
            <mxPoint x="300" y="260" as="sourcePoint" />
            <mxPoint x="404.3933982822018" y="225.60660171779818" as="targetPoint" />
          </mxGeometry>
        </mxCell>
        <mxCell id="ySu2Nr1dZMbkxiKEu1m7-6" value="Key=x" style="text;html=1;strokeColor=none;fillColor=none;align=center;verticalAlign=middle;whiteSpace=wrap;rounded=0;" vertex="1" parent="1">
          <mxGeometry x="385" y="168" width="40" height="20" as="geometry" />
        </mxCell>
        <mxCell id="ySu2Nr1dZMbkxiKEu1m7-9" style="rounded=0;orthogonalLoop=1;jettySize=auto;html=1;exitX=1;exitY=1;exitDx=0;exitDy=0;entryX=0;entryY=0;entryDx=0;entryDy=0;endArrow=none;endFill=0;" edge="1" parent="1" source="ySu2Nr1dZMbkxiKEu1m7-7" target="ySu2Nr1dZMbkxiKEu1m7-8">
          <mxGeometry relative="1" as="geometry" />
        </mxCell>
        <mxCell id="ySu2Nr1dZMbkxiKEu1m7-7" value="$$-\infty$$" style="ellipse;whiteSpace=wrap;html=1;aspect=fixed;" vertex="1" parent="1">
          <mxGeometry x="322" y="498" width="29" height="29" as="geometry" />
        </mxCell>
        <mxCell id="ySu2Nr1dZMbkxiKEu1m7-8" value="$$+\infty$$" style="ellipse;whiteSpace=wrap;html=1;aspect=fixed;" vertex="1" parent="1">
          <mxGeometry x="391" y="564" width="29" height="29" as="geometry" />
        </mxCell>
        <mxCell id="ySu2Nr1dZMbkxiKEu1m7-17" style="edgeStyle=none;rounded=0;orthogonalLoop=1;jettySize=auto;html=1;exitX=0;exitY=1;exitDx=0;exitDy=0;entryX=0.5;entryY=0;entryDx=0;entryDy=0;endArrow=none;endFill=0;" edge="1" parent="1" source="ySu2Nr1dZMbkxiKEu1m7-10" target="ySu2Nr1dZMbkxiKEu1m7-11">
          <mxGeometry relative="1" as="geometry" />
        </mxCell>
        <mxCell id="ySu2Nr1dZMbkxiKEu1m7-19" style="edgeStyle=none;rounded=0;orthogonalLoop=1;jettySize=auto;html=1;exitX=1;exitY=1;exitDx=0;exitDy=0;entryX=0.5;entryY=0;entryDx=0;entryDy=0;endArrow=none;endFill=0;" edge="1" parent="1" source="ySu2Nr1dZMbkxiKEu1m7-10" target="ySu2Nr1dZMbkxiKEu1m7-12">
          <mxGeometry relative="1" as="geometry" />
        </mxCell>
        <mxCell id="ySu2Nr1dZMbkxiKEu1m7-10" value="5" style="ellipse;whiteSpace=wrap;html=1;aspect=fixed;" vertex="1" parent="1">
          <mxGeometry x="399" y="734" width="29" height="29" as="geometry" />
        </mxCell>
        <mxCell id="ySu2Nr1dZMbkxiKEu1m7-22" style="edgeStyle=none;rounded=0;orthogonalLoop=1;jettySize=auto;html=1;exitX=0;exitY=1;exitDx=0;exitDy=0;entryX=0;entryY=0.5;entryDx=0;entryDy=0;endArrow=none;endFill=0;" edge="1" parent="1" source="ySu2Nr1dZMbkxiKEu1m7-11" target="ySu2Nr1dZMbkxiKEu1m7-15">
          <mxGeometry relative="1" as="geometry" />
        </mxCell>
        <mxCell id="ySu2Nr1dZMbkxiKEu1m7-24" style="edgeStyle=none;rounded=0;orthogonalLoop=1;jettySize=auto;html=1;endArrow=none;endFill=0;entryX=1;entryY=1;entryDx=0;entryDy=0;exitX=0.5;exitY=0;exitDx=0;exitDy=0;" edge="1" parent="1" source="ySu2Nr1dZMbkxiKEu1m7-26" target="ySu2Nr1dZMbkxiKEu1m7-11">
          <mxGeometry relative="1" as="geometry">
            <mxPoint x="387.5393746638531" y="815.2" as="targetPoint" />
            <mxPoint x="396" y="836" as="sourcePoint" />
          </mxGeometry>
        </mxCell>
        <mxCell id="ySu2Nr1dZMbkxiKEu1m7-11" value="2" style="ellipse;whiteSpace=wrap;html=1;aspect=fixed;" vertex="1" parent="1">
          <mxGeometry x="356" y="786" width="29" height="29" as="geometry" />
        </mxCell>
        <mxCell id="ySu2Nr1dZMbkxiKEu1m7-20" style="edgeStyle=none;rounded=0;orthogonalLoop=1;jettySize=auto;html=1;exitX=0;exitY=1;exitDx=0;exitDy=0;entryX=0.5;entryY=0;entryDx=0;entryDy=0;endArrow=none;endFill=0;" edge="1" parent="1" source="ySu2Nr1dZMbkxiKEu1m7-12" target="ySu2Nr1dZMbkxiKEu1m7-13">
          <mxGeometry relative="1" as="geometry" />
        </mxCell>
        <mxCell id="ySu2Nr1dZMbkxiKEu1m7-21" style="edgeStyle=none;rounded=0;orthogonalLoop=1;jettySize=auto;html=1;exitX=1;exitY=1;exitDx=0;exitDy=0;entryX=0.5;entryY=0;entryDx=0;entryDy=0;endArrow=none;endFill=0;" edge="1" parent="1" source="ySu2Nr1dZMbkxiKEu1m7-12" target="ySu2Nr1dZMbkxiKEu1m7-16">
          <mxGeometry relative="1" as="geometry" />
        </mxCell>
        <mxCell id="ySu2Nr1dZMbkxiKEu1m7-12" value="9" style="ellipse;whiteSpace=wrap;html=1;aspect=fixed;" vertex="1" parent="1">
          <mxGeometry x="450" y="786" width="29" height="29" as="geometry" />
        </mxCell>
        <mxCell id="ySu2Nr1dZMbkxiKEu1m7-30" value="" style="edgeStyle=none;rounded=0;orthogonalLoop=1;jettySize=auto;html=1;endArrow=none;endFill=0;" edge="1" parent="1" source="ySu2Nr1dZMbkxiKEu1m7-13" target="ySu2Nr1dZMbkxiKEu1m7-29">
          <mxGeometry relative="1" as="geometry" />
        </mxCell>
        <mxCell id="ySu2Nr1dZMbkxiKEu1m7-13" value="6" style="ellipse;whiteSpace=wrap;html=1;aspect=fixed;" vertex="1" parent="1">
          <mxGeometry x="425" y="837" width="29" height="29" as="geometry" />
        </mxCell>
        <mxCell id="ySu2Nr1dZMbkxiKEu1m7-14" value="1" style="ellipse;whiteSpace=wrap;html=1;aspect=fixed;" vertex="1" parent="1">
          <mxGeometry x="351" y="883" width="29" height="29" as="geometry" />
        </mxCell>
        <mxCell id="ySu2Nr1dZMbkxiKEu1m7-23" style="edgeStyle=none;rounded=0;orthogonalLoop=1;jettySize=auto;html=1;exitX=1;exitY=0;exitDx=0;exitDy=0;entryX=0.5;entryY=0;entryDx=0;entryDy=0;endArrow=none;endFill=0;" edge="1" parent="1" source="ySu2Nr1dZMbkxiKEu1m7-15" target="ySu2Nr1dZMbkxiKEu1m7-14">
          <mxGeometry relative="1" as="geometry" />
        </mxCell>
        <mxCell id="ySu2Nr1dZMbkxiKEu1m7-15" value="$$-\infty$$" style="ellipse;whiteSpace=wrap;html=1;aspect=fixed;direction=south;" vertex="1" parent="1">
          <mxGeometry x="322" y="837" width="29" height="29" as="geometry" />
        </mxCell>
        <mxCell id="ySu2Nr1dZMbkxiKEu1m7-16" value="$$+\infty$$" style="ellipse;whiteSpace=wrap;html=1;aspect=fixed;" vertex="1" parent="1">
          <mxGeometry x="479" y="837" width="29" height="29" as="geometry" />
        </mxCell>
        <mxCell id="ySu2Nr1dZMbkxiKEu1m7-26" value="3" style="ellipse;whiteSpace=wrap;html=1;aspect=fixed;fillColor=#FFFFFF;" vertex="1" parent="1">
          <mxGeometry x="385" y="837" width="29" height="29" as="geometry" />
        </mxCell>
        <mxCell id="ySu2Nr1dZMbkxiKEu1m7-29" value="8" style="ellipse;whiteSpace=wrap;html=1;aspect=fixed;fillColor=#FFFFFF;" vertex="1" parent="1">
          <mxGeometry x="454" y="883" width="29" height="29" as="geometry" />
        </mxCell>
        <mxCell id="ySu2Nr1dZMbkxiKEu1m7-31" style="edgeStyle=none;rounded=0;orthogonalLoop=1;jettySize=auto;html=1;exitX=0;exitY=1;exitDx=0;exitDy=0;entryX=0.5;entryY=0;entryDx=0;entryDy=0;endArrow=none;endFill=0;" edge="1" parent="1" source="ySu2Nr1dZMbkxiKEu1m7-33" target="ySu2Nr1dZMbkxiKEu1m7-36">
          <mxGeometry relative="1" as="geometry" />
        </mxCell>
        <mxCell id="ySu2Nr1dZMbkxiKEu1m7-32" style="edgeStyle=none;rounded=0;orthogonalLoop=1;jettySize=auto;html=1;exitX=1;exitY=1;exitDx=0;exitDy=0;entryX=0.5;entryY=0;entryDx=0;entryDy=0;endArrow=none;endFill=0;" edge="1" parent="1" source="ySu2Nr1dZMbkxiKEu1m7-33" target="ySu2Nr1dZMbkxiKEu1m7-39">
          <mxGeometry relative="1" as="geometry" />
        </mxCell>
        <mxCell id="ySu2Nr1dZMbkxiKEu1m7-33" value="5" style="ellipse;whiteSpace=wrap;html=1;aspect=fixed;fillColor=#99CCFF;" vertex="1" parent="1">
          <mxGeometry x="216" y="1016" width="29" height="29" as="geometry" />
        </mxCell>
        <mxCell id="ySu2Nr1dZMbkxiKEu1m7-34" style="edgeStyle=none;rounded=0;orthogonalLoop=1;jettySize=auto;html=1;exitX=0;exitY=1;exitDx=0;exitDy=0;entryX=0;entryY=0.5;entryDx=0;entryDy=0;endArrow=none;endFill=0;" edge="1" parent="1" source="ySu2Nr1dZMbkxiKEu1m7-36" target="ySu2Nr1dZMbkxiKEu1m7-44">
          <mxGeometry relative="1" as="geometry" />
        </mxCell>
        <mxCell id="ySu2Nr1dZMbkxiKEu1m7-35" style="edgeStyle=none;rounded=0;orthogonalLoop=1;jettySize=auto;html=1;endArrow=none;endFill=0;entryX=1;entryY=1;entryDx=0;entryDy=0;exitX=0.5;exitY=0;exitDx=0;exitDy=0;" edge="1" parent="1" source="ySu2Nr1dZMbkxiKEu1m7-46" target="ySu2Nr1dZMbkxiKEu1m7-36">
          <mxGeometry relative="1" as="geometry">
            <mxPoint x="199.5393746638531" y="1094.2" as="targetPoint" />
            <mxPoint x="208" y="1115" as="sourcePoint" />
          </mxGeometry>
        </mxCell>
        <mxCell id="ySu2Nr1dZMbkxiKEu1m7-36" value="2" style="ellipse;whiteSpace=wrap;html=1;aspect=fixed;fillColor=#99CCFF;" vertex="1" parent="1">
          <mxGeometry x="168" y="1065" width="29" height="29" as="geometry" />
        </mxCell>
        <mxCell id="ySu2Nr1dZMbkxiKEu1m7-37" style="edgeStyle=none;rounded=0;orthogonalLoop=1;jettySize=auto;html=1;exitX=0;exitY=1;exitDx=0;exitDy=0;entryX=0.5;entryY=0;entryDx=0;entryDy=0;endArrow=none;endFill=0;" edge="1" parent="1" source="ySu2Nr1dZMbkxiKEu1m7-39" target="ySu2Nr1dZMbkxiKEu1m7-41">
          <mxGeometry relative="1" as="geometry" />
        </mxCell>
        <mxCell id="ySu2Nr1dZMbkxiKEu1m7-38" style="edgeStyle=none;rounded=0;orthogonalLoop=1;jettySize=auto;html=1;exitX=1;exitY=1;exitDx=0;exitDy=0;entryX=0.5;entryY=0;entryDx=0;entryDy=0;endArrow=none;endFill=0;" edge="1" parent="1" source="ySu2Nr1dZMbkxiKEu1m7-39" target="ySu2Nr1dZMbkxiKEu1m7-45">
          <mxGeometry relative="1" as="geometry" />
        </mxCell>
        <mxCell id="ySu2Nr1dZMbkxiKEu1m7-39" value="9" style="ellipse;whiteSpace=wrap;html=1;aspect=fixed;" vertex="1" parent="1">
          <mxGeometry x="262" y="1065" width="29" height="29" as="geometry" />
        </mxCell>
        <mxCell id="ySu2Nr1dZMbkxiKEu1m7-40" value="" style="edgeStyle=none;rounded=0;orthogonalLoop=1;jettySize=auto;html=1;endArrow=none;endFill=0;" edge="1" parent="1" source="ySu2Nr1dZMbkxiKEu1m7-41" target="ySu2Nr1dZMbkxiKEu1m7-47">
          <mxGeometry relative="1" as="geometry" />
        </mxCell>
        <mxCell id="ySu2Nr1dZMbkxiKEu1m7-41" value="6" style="ellipse;whiteSpace=wrap;html=1;aspect=fixed;" vertex="1" parent="1">
          <mxGeometry x="237" y="1116" width="29" height="29" as="geometry" />
        </mxCell>
        <mxCell id="ySu2Nr1dZMbkxiKEu1m7-42" value="1" style="ellipse;whiteSpace=wrap;html=1;aspect=fixed;" vertex="1" parent="1">
          <mxGeometry x="163" y="1162" width="29" height="29" as="geometry" />
        </mxCell>
        <mxCell id="ySu2Nr1dZMbkxiKEu1m7-43" style="edgeStyle=none;rounded=0;orthogonalLoop=1;jettySize=auto;html=1;exitX=1;exitY=0;exitDx=0;exitDy=0;entryX=0.5;entryY=0;entryDx=0;entryDy=0;endArrow=none;endFill=0;" edge="1" parent="1" source="ySu2Nr1dZMbkxiKEu1m7-44" target="ySu2Nr1dZMbkxiKEu1m7-42">
          <mxGeometry relative="1" as="geometry" />
        </mxCell>
        <mxCell id="ySu2Nr1dZMbkxiKEu1m7-44" value="$$-\infty$$" style="ellipse;whiteSpace=wrap;html=1;aspect=fixed;direction=south;" vertex="1" parent="1">
          <mxGeometry x="134" y="1116" width="29" height="29" as="geometry" />
        </mxCell>
        <mxCell id="ySu2Nr1dZMbkxiKEu1m7-45" value="$$+\infty$$" style="ellipse;whiteSpace=wrap;html=1;aspect=fixed;" vertex="1" parent="1">
          <mxGeometry x="291" y="1116" width="29" height="29" as="geometry" />
        </mxCell>
        <mxCell id="ySu2Nr1dZMbkxiKEu1m7-46" value="3" style="ellipse;whiteSpace=wrap;html=1;aspect=fixed;fillColor=#99CCFF;" vertex="1" parent="1">
          <mxGeometry x="197" y="1116" width="29" height="29" as="geometry" />
        </mxCell>
        <mxCell id="ySu2Nr1dZMbkxiKEu1m7-47" value="8" style="ellipse;whiteSpace=wrap;html=1;aspect=fixed;fillColor=#FFFFFF;" vertex="1" parent="1">
          <mxGeometry x="266" y="1162" width="29" height="29" as="geometry" />
        </mxCell>
        <mxCell id="ySu2Nr1dZMbkxiKEu1m7-48" value="求 3 的后继" style="text;html=1;strokeColor=none;fillColor=none;align=center;verticalAlign=middle;whiteSpace=wrap;rounded=0;" vertex="1" parent="1">
          <mxGeometry x="183" y="1212" width="104" height="20" as="geometry" />
        </mxCell>
        <mxCell id="ySu2Nr1dZMbkxiKEu1m7-49" value="" style="rounded=0;whiteSpace=wrap;html=1;fillColor=none;dashed=1;" vertex="1" parent="1">
          <mxGeometry x="213" y="1013" width="35" height="35" as="geometry" />
        </mxCell>
        <mxCell id="ySu2Nr1dZMbkxiKEu1m7-50" style="edgeStyle=none;rounded=0;orthogonalLoop=1;jettySize=auto;html=1;exitX=0;exitY=1;exitDx=0;exitDy=0;entryX=0.5;entryY=0;entryDx=0;entryDy=0;endArrow=none;endFill=0;" edge="1" parent="1" source="ySu2Nr1dZMbkxiKEu1m7-52" target="ySu2Nr1dZMbkxiKEu1m7-55">
          <mxGeometry relative="1" as="geometry" />
        </mxCell>
        <mxCell id="ySu2Nr1dZMbkxiKEu1m7-51" style="edgeStyle=none;rounded=0;orthogonalLoop=1;jettySize=auto;html=1;exitX=1;exitY=1;exitDx=0;exitDy=0;entryX=0.5;entryY=0;entryDx=0;entryDy=0;endArrow=none;endFill=0;" edge="1" parent="1" source="ySu2Nr1dZMbkxiKEu1m7-52" target="ySu2Nr1dZMbkxiKEu1m7-58">
          <mxGeometry relative="1" as="geometry" />
        </mxCell>
        <mxCell id="ySu2Nr1dZMbkxiKEu1m7-52" value="5" style="ellipse;whiteSpace=wrap;html=1;aspect=fixed;fillColor=#99CCFF;" vertex="1" parent="1">
          <mxGeometry x="499" y="1016" width="29" height="29" as="geometry" />
        </mxCell>
        <mxCell id="ySu2Nr1dZMbkxiKEu1m7-53" style="edgeStyle=none;rounded=0;orthogonalLoop=1;jettySize=auto;html=1;exitX=0;exitY=1;exitDx=0;exitDy=0;entryX=0;entryY=0.5;entryDx=0;entryDy=0;endArrow=none;endFill=0;" edge="1" parent="1" source="ySu2Nr1dZMbkxiKEu1m7-55" target="ySu2Nr1dZMbkxiKEu1m7-63">
          <mxGeometry relative="1" as="geometry" />
        </mxCell>
        <mxCell id="ySu2Nr1dZMbkxiKEu1m7-54" style="edgeStyle=none;rounded=0;orthogonalLoop=1;jettySize=auto;html=1;endArrow=none;endFill=0;entryX=1;entryY=1;entryDx=0;entryDy=0;exitX=0.5;exitY=0;exitDx=0;exitDy=0;" edge="1" parent="1" source="ySu2Nr1dZMbkxiKEu1m7-65" target="ySu2Nr1dZMbkxiKEu1m7-55">
          <mxGeometry relative="1" as="geometry">
            <mxPoint x="482.5393746638531" y="1094.2" as="targetPoint" />
            <mxPoint x="491" y="1115" as="sourcePoint" />
          </mxGeometry>
        </mxCell>
        <mxCell id="ySu2Nr1dZMbkxiKEu1m7-55" value="2" style="ellipse;whiteSpace=wrap;html=1;aspect=fixed;fillColor=#FFFFFF;" vertex="1" parent="1">
          <mxGeometry x="451" y="1065" width="29" height="29" as="geometry" />
        </mxCell>
        <mxCell id="ySu2Nr1dZMbkxiKEu1m7-56" style="edgeStyle=none;rounded=0;orthogonalLoop=1;jettySize=auto;html=1;exitX=0;exitY=1;exitDx=0;exitDy=0;entryX=0.5;entryY=0;entryDx=0;entryDy=0;endArrow=none;endFill=0;" edge="1" parent="1" source="ySu2Nr1dZMbkxiKEu1m7-58" target="ySu2Nr1dZMbkxiKEu1m7-60">
          <mxGeometry relative="1" as="geometry" />
        </mxCell>
        <mxCell id="ySu2Nr1dZMbkxiKEu1m7-57" style="edgeStyle=none;rounded=0;orthogonalLoop=1;jettySize=auto;html=1;exitX=1;exitY=1;exitDx=0;exitDy=0;entryX=0.5;entryY=0;entryDx=0;entryDy=0;endArrow=none;endFill=0;" edge="1" parent="1" source="ySu2Nr1dZMbkxiKEu1m7-58" target="ySu2Nr1dZMbkxiKEu1m7-64">
          <mxGeometry relative="1" as="geometry" />
        </mxCell>
        <mxCell id="ySu2Nr1dZMbkxiKEu1m7-58" value="9" style="ellipse;whiteSpace=wrap;html=1;aspect=fixed;fillColor=#99CCFF;" vertex="1" parent="1">
          <mxGeometry x="545" y="1065" width="29" height="29" as="geometry" />
        </mxCell>
        <mxCell id="ySu2Nr1dZMbkxiKEu1m7-59" value="" style="edgeStyle=none;rounded=0;orthogonalLoop=1;jettySize=auto;html=1;endArrow=none;endFill=0;" edge="1" parent="1" source="ySu2Nr1dZMbkxiKEu1m7-60" target="ySu2Nr1dZMbkxiKEu1m7-66">
          <mxGeometry relative="1" as="geometry" />
        </mxCell>
        <mxCell id="ySu2Nr1dZMbkxiKEu1m7-60" value="6" style="ellipse;whiteSpace=wrap;html=1;aspect=fixed;fillColor=#99CCFF;" vertex="1" parent="1">
          <mxGeometry x="520" y="1116" width="29" height="29" as="geometry" />
        </mxCell>
        <mxCell id="ySu2Nr1dZMbkxiKEu1m7-61" value="1" style="ellipse;whiteSpace=wrap;html=1;aspect=fixed;" vertex="1" parent="1">
          <mxGeometry x="446" y="1162" width="29" height="29" as="geometry" />
        </mxCell>
        <mxCell id="ySu2Nr1dZMbkxiKEu1m7-62" style="edgeStyle=none;rounded=0;orthogonalLoop=1;jettySize=auto;html=1;exitX=1;exitY=0;exitDx=0;exitDy=0;entryX=0.5;entryY=0;entryDx=0;entryDy=0;endArrow=none;endFill=0;" edge="1" parent="1" source="ySu2Nr1dZMbkxiKEu1m7-63" target="ySu2Nr1dZMbkxiKEu1m7-61">
          <mxGeometry relative="1" as="geometry" />
        </mxCell>
        <mxCell id="ySu2Nr1dZMbkxiKEu1m7-63" value="$$-\infty$$" style="ellipse;whiteSpace=wrap;html=1;aspect=fixed;direction=south;" vertex="1" parent="1">
          <mxGeometry x="417" y="1116" width="29" height="29" as="geometry" />
        </mxCell>
        <mxCell id="ySu2Nr1dZMbkxiKEu1m7-64" value="$$+\infty$$" style="ellipse;whiteSpace=wrap;html=1;aspect=fixed;" vertex="1" parent="1">
          <mxGeometry x="574" y="1116" width="29" height="29" as="geometry" />
        </mxCell>
        <mxCell id="ySu2Nr1dZMbkxiKEu1m7-65" value="3" style="ellipse;whiteSpace=wrap;html=1;aspect=fixed;fillColor=#FFFFFF;" vertex="1" parent="1">
          <mxGeometry x="480" y="1116" width="29" height="29" as="geometry" />
        </mxCell>
        <mxCell id="ySu2Nr1dZMbkxiKEu1m7-66" value="8" style="ellipse;whiteSpace=wrap;html=1;aspect=fixed;fillColor=#FFFFFF;" vertex="1" parent="1">
          <mxGeometry x="549" y="1162" width="29" height="29" as="geometry" />
        </mxCell>
        <mxCell id="ySu2Nr1dZMbkxiKEu1m7-67" value="求 5 的后继" style="text;html=1;strokeColor=none;fillColor=none;align=center;verticalAlign=middle;whiteSpace=wrap;rounded=0;" vertex="1" parent="1">
          <mxGeometry x="466" y="1212" width="104" height="20" as="geometry" />
        </mxCell>
        <mxCell id="ySu2Nr1dZMbkxiKEu1m7-68" value="" style="rounded=0;whiteSpace=wrap;html=1;fillColor=none;dashed=1;" vertex="1" parent="1">
          <mxGeometry x="517" y="1113" width="35" height="35" as="geometry" />
        </mxCell>
        <mxCell id="ySu2Nr1dZMbkxiKEu1m7-69" value="检索到 5" style="text;html=1;strokeColor=none;fillColor=none;align=center;verticalAlign=middle;whiteSpace=wrap;rounded=0;" vertex="1" parent="1">
          <mxGeometry x="479" y="993" width="77" height="20" as="geometry" />
        </mxCell>
        <mxCell id="ySu2Nr1dZMbkxiKEu1m7-70" style="edgeStyle=none;rounded=0;orthogonalLoop=1;jettySize=auto;html=1;exitX=0;exitY=1;exitDx=0;exitDy=0;entryX=0.5;entryY=0;entryDx=0;entryDy=0;endArrow=none;endFill=0;" edge="1" parent="1" source="ySu2Nr1dZMbkxiKEu1m7-72" target="ySu2Nr1dZMbkxiKEu1m7-75">
          <mxGeometry relative="1" as="geometry" />
        </mxCell>
        <mxCell id="ySu2Nr1dZMbkxiKEu1m7-71" style="edgeStyle=none;rounded=0;orthogonalLoop=1;jettySize=auto;html=1;exitX=1;exitY=1;exitDx=0;exitDy=0;entryX=0.5;entryY=0;entryDx=0;entryDy=0;endArrow=none;endFill=0;" edge="1" parent="1" source="ySu2Nr1dZMbkxiKEu1m7-72" target="ySu2Nr1dZMbkxiKEu1m7-78">
          <mxGeometry relative="1" as="geometry" />
        </mxCell>
        <mxCell id="ySu2Nr1dZMbkxiKEu1m7-72" value="5" style="ellipse;whiteSpace=wrap;html=1;aspect=fixed;fillColor=#FF0000;" vertex="1" parent="1">
          <mxGeometry x="236" y="1296" width="29" height="29" as="geometry" />
        </mxCell>
        <mxCell id="ySu2Nr1dZMbkxiKEu1m7-73" style="edgeStyle=none;rounded=0;orthogonalLoop=1;jettySize=auto;html=1;exitX=0;exitY=1;exitDx=0;exitDy=0;entryX=0;entryY=0.5;entryDx=0;entryDy=0;endArrow=none;endFill=0;" edge="1" parent="1" source="ySu2Nr1dZMbkxiKEu1m7-75" target="ySu2Nr1dZMbkxiKEu1m7-83">
          <mxGeometry relative="1" as="geometry" />
        </mxCell>
        <mxCell id="ySu2Nr1dZMbkxiKEu1m7-74" style="edgeStyle=none;rounded=0;orthogonalLoop=1;jettySize=auto;html=1;endArrow=none;endFill=0;entryX=1;entryY=1;entryDx=0;entryDy=0;exitX=0.5;exitY=0;exitDx=0;exitDy=0;" edge="1" parent="1" source="ySu2Nr1dZMbkxiKEu1m7-85" target="ySu2Nr1dZMbkxiKEu1m7-75">
          <mxGeometry relative="1" as="geometry">
            <mxPoint x="219.5393746638531" y="1374.2" as="targetPoint" />
            <mxPoint x="228" y="1395" as="sourcePoint" />
          </mxGeometry>
        </mxCell>
        <mxCell id="ySu2Nr1dZMbkxiKEu1m7-75" value="2" style="ellipse;whiteSpace=wrap;html=1;aspect=fixed;fillColor=#FFFFFF;" vertex="1" parent="1">
          <mxGeometry x="188" y="1345" width="29" height="29" as="geometry" />
        </mxCell>
        <mxCell id="ySu2Nr1dZMbkxiKEu1m7-76" style="edgeStyle=none;rounded=0;orthogonalLoop=1;jettySize=auto;html=1;exitX=0;exitY=1;exitDx=0;exitDy=0;entryX=0.5;entryY=0;entryDx=0;entryDy=0;endArrow=none;endFill=0;" edge="1" parent="1" source="ySu2Nr1dZMbkxiKEu1m7-78" target="ySu2Nr1dZMbkxiKEu1m7-80">
          <mxGeometry relative="1" as="geometry" />
        </mxCell>
        <mxCell id="ySu2Nr1dZMbkxiKEu1m7-77" style="edgeStyle=none;rounded=0;orthogonalLoop=1;jettySize=auto;html=1;exitX=1;exitY=1;exitDx=0;exitDy=0;entryX=0.5;entryY=0;entryDx=0;entryDy=0;endArrow=none;endFill=0;" edge="1" parent="1" source="ySu2Nr1dZMbkxiKEu1m7-78" target="ySu2Nr1dZMbkxiKEu1m7-84">
          <mxGeometry relative="1" as="geometry" />
        </mxCell>
        <mxCell id="ySu2Nr1dZMbkxiKEu1m7-78" value="9" style="ellipse;whiteSpace=wrap;html=1;aspect=fixed;" vertex="1" parent="1">
          <mxGeometry x="282" y="1345" width="29" height="29" as="geometry" />
        </mxCell>
        <mxCell id="ySu2Nr1dZMbkxiKEu1m7-79" value="" style="edgeStyle=none;rounded=0;orthogonalLoop=1;jettySize=auto;html=1;endArrow=none;endFill=0;" edge="1" parent="1" source="ySu2Nr1dZMbkxiKEu1m7-80" target="ySu2Nr1dZMbkxiKEu1m7-86">
          <mxGeometry relative="1" as="geometry" />
        </mxCell>
        <mxCell id="ySu2Nr1dZMbkxiKEu1m7-80" value="6" style="ellipse;whiteSpace=wrap;html=1;aspect=fixed;" vertex="1" parent="1">
          <mxGeometry x="257" y="1396" width="29" height="29" as="geometry" />
        </mxCell>
        <mxCell id="ySu2Nr1dZMbkxiKEu1m7-81" value="1" style="ellipse;whiteSpace=wrap;html=1;aspect=fixed;" vertex="1" parent="1">
          <mxGeometry x="183" y="1442" width="29" height="29" as="geometry" />
        </mxCell>
        <mxCell id="ySu2Nr1dZMbkxiKEu1m7-82" style="edgeStyle=none;rounded=0;orthogonalLoop=1;jettySize=auto;html=1;exitX=1;exitY=0;exitDx=0;exitDy=0;entryX=0.5;entryY=0;entryDx=0;entryDy=0;endArrow=none;endFill=0;" edge="1" parent="1" source="ySu2Nr1dZMbkxiKEu1m7-83" target="ySu2Nr1dZMbkxiKEu1m7-81">
          <mxGeometry relative="1" as="geometry" />
        </mxCell>
        <mxCell id="ySu2Nr1dZMbkxiKEu1m7-83" value="$$-\infty$$" style="ellipse;whiteSpace=wrap;html=1;aspect=fixed;direction=south;" vertex="1" parent="1">
          <mxGeometry x="154" y="1396" width="29" height="29" as="geometry" />
        </mxCell>
        <mxCell id="ySu2Nr1dZMbkxiKEu1m7-84" value="$$+\infty$$" style="ellipse;whiteSpace=wrap;html=1;aspect=fixed;" vertex="1" parent="1">
          <mxGeometry x="311" y="1396" width="29" height="29" as="geometry" />
        </mxCell>
        <mxCell id="ySu2Nr1dZMbkxiKEu1m7-85" value="3" style="ellipse;whiteSpace=wrap;html=1;aspect=fixed;fillColor=#FFFFFF;" vertex="1" parent="1">
          <mxGeometry x="217" y="1396" width="29" height="29" as="geometry" />
        </mxCell>
        <mxCell id="ySu2Nr1dZMbkxiKEu1m7-86" value="8" style="ellipse;whiteSpace=wrap;html=1;aspect=fixed;fillColor=#FFFFFF;" vertex="1" parent="1">
          <mxGeometry x="286" y="1442" width="29" height="29" as="geometry" />
        </mxCell>
        <mxCell id="ySu2Nr1dZMbkxiKEu1m7-88" value="删除 5&lt;br&gt;5 的后继为 6" style="text;html=1;strokeColor=none;fillColor=none;align=center;verticalAlign=middle;whiteSpace=wrap;rounded=0;" vertex="1" parent="1">
          <mxGeometry x="202" y="1490" width="104" height="20" as="geometry" />
        </mxCell>
        <mxCell id="ySu2Nr1dZMbkxiKEu1m7-111" style="edgeStyle=none;rounded=0;orthogonalLoop=1;jettySize=auto;html=1;exitX=1;exitY=0.25;exitDx=0;exitDy=0;entryX=0;entryY=0.25;entryDx=0;entryDy=0;endArrow=classic;endFill=1;dashed=1;" edge="1" parent="1" source="ySu2Nr1dZMbkxiKEu1m7-89" target="ySu2Nr1dZMbkxiKEu1m7-110">
          <mxGeometry relative="1" as="geometry" />
        </mxCell>
        <mxCell id="ySu2Nr1dZMbkxiKEu1m7-89" value="" style="rounded=0;whiteSpace=wrap;html=1;fillColor=none;dashed=1;" vertex="1" parent="1">
          <mxGeometry x="254" y="1393" width="35" height="35" as="geometry" />
        </mxCell>
        <mxCell id="ySu2Nr1dZMbkxiKEu1m7-90" style="edgeStyle=none;rounded=0;orthogonalLoop=1;jettySize=auto;html=1;entryX=0.5;entryY=0;entryDx=0;entryDy=0;endArrow=none;endFill=0;" edge="1" parent="1" source="ySu2Nr1dZMbkxiKEu1m7-100" target="ySu2Nr1dZMbkxiKEu1m7-95">
          <mxGeometry relative="1" as="geometry">
            <mxPoint x="511" y="1321" as="sourcePoint" />
          </mxGeometry>
        </mxCell>
        <mxCell id="ySu2Nr1dZMbkxiKEu1m7-91" style="edgeStyle=none;rounded=0;orthogonalLoop=1;jettySize=auto;html=1;entryX=0.5;entryY=0;entryDx=0;entryDy=0;endArrow=none;endFill=0;" edge="1" parent="1" source="ySu2Nr1dZMbkxiKEu1m7-100" target="ySu2Nr1dZMbkxiKEu1m7-98">
          <mxGeometry relative="1" as="geometry">
            <mxPoint x="541" y="1320" as="sourcePoint" />
          </mxGeometry>
        </mxCell>
        <mxCell id="ySu2Nr1dZMbkxiKEu1m7-93" style="edgeStyle=none;rounded=0;orthogonalLoop=1;jettySize=auto;html=1;exitX=0;exitY=1;exitDx=0;exitDy=0;entryX=0;entryY=0.5;entryDx=0;entryDy=0;endArrow=none;endFill=0;" edge="1" parent="1" source="ySu2Nr1dZMbkxiKEu1m7-95" target="ySu2Nr1dZMbkxiKEu1m7-103">
          <mxGeometry relative="1" as="geometry" />
        </mxCell>
        <mxCell id="ySu2Nr1dZMbkxiKEu1m7-94" style="edgeStyle=none;rounded=0;orthogonalLoop=1;jettySize=auto;html=1;endArrow=none;endFill=0;entryX=1;entryY=1;entryDx=0;entryDy=0;exitX=0.5;exitY=0;exitDx=0;exitDy=0;" edge="1" parent="1" source="ySu2Nr1dZMbkxiKEu1m7-105" target="ySu2Nr1dZMbkxiKEu1m7-95">
          <mxGeometry relative="1" as="geometry">
            <mxPoint x="490.0393746638531" y="1374.2" as="targetPoint" />
            <mxPoint x="498.5" y="1395" as="sourcePoint" />
          </mxGeometry>
        </mxCell>
        <mxCell id="ySu2Nr1dZMbkxiKEu1m7-95" value="2" style="ellipse;whiteSpace=wrap;html=1;aspect=fixed;fillColor=#FFFFFF;" vertex="1" parent="1">
          <mxGeometry x="458.5" y="1345" width="29" height="29" as="geometry" />
        </mxCell>
        <mxCell id="ySu2Nr1dZMbkxiKEu1m7-97" style="edgeStyle=none;rounded=0;orthogonalLoop=1;jettySize=auto;html=1;exitX=1;exitY=1;exitDx=0;exitDy=0;entryX=0.5;entryY=0;entryDx=0;entryDy=0;endArrow=none;endFill=0;" edge="1" parent="1" source="ySu2Nr1dZMbkxiKEu1m7-98" target="ySu2Nr1dZMbkxiKEu1m7-104">
          <mxGeometry relative="1" as="geometry" />
        </mxCell>
        <mxCell id="ySu2Nr1dZMbkxiKEu1m7-109" style="edgeStyle=none;rounded=0;orthogonalLoop=1;jettySize=auto;html=1;exitX=0;exitY=1;exitDx=0;exitDy=0;entryX=0.5;entryY=0;entryDx=0;entryDy=0;endArrow=none;endFill=0;" edge="1" parent="1" source="ySu2Nr1dZMbkxiKEu1m7-98" target="ySu2Nr1dZMbkxiKEu1m7-106">
          <mxGeometry relative="1" as="geometry" />
        </mxCell>
        <mxCell id="ySu2Nr1dZMbkxiKEu1m7-98" value="9" style="ellipse;whiteSpace=wrap;html=1;aspect=fixed;" vertex="1" parent="1">
          <mxGeometry x="552.5" y="1345" width="29" height="29" as="geometry" />
        </mxCell>
        <mxCell id="ySu2Nr1dZMbkxiKEu1m7-100" value="6" style="ellipse;whiteSpace=wrap;html=1;aspect=fixed;" vertex="1" parent="1">
          <mxGeometry x="510" y="1296" width="29" height="29" as="geometry" />
        </mxCell>
        <mxCell id="ySu2Nr1dZMbkxiKEu1m7-101" value="1" style="ellipse;whiteSpace=wrap;html=1;aspect=fixed;" vertex="1" parent="1">
          <mxGeometry x="453.5" y="1442" width="29" height="29" as="geometry" />
        </mxCell>
        <mxCell id="ySu2Nr1dZMbkxiKEu1m7-102" style="edgeStyle=none;rounded=0;orthogonalLoop=1;jettySize=auto;html=1;exitX=1;exitY=0;exitDx=0;exitDy=0;entryX=0.5;entryY=0;entryDx=0;entryDy=0;endArrow=none;endFill=0;" edge="1" parent="1" source="ySu2Nr1dZMbkxiKEu1m7-103" target="ySu2Nr1dZMbkxiKEu1m7-101">
          <mxGeometry relative="1" as="geometry" />
        </mxCell>
        <mxCell id="ySu2Nr1dZMbkxiKEu1m7-103" value="$$-\infty$$" style="ellipse;whiteSpace=wrap;html=1;aspect=fixed;direction=south;" vertex="1" parent="1">
          <mxGeometry x="424.5" y="1396" width="29" height="29" as="geometry" />
        </mxCell>
        <mxCell id="ySu2Nr1dZMbkxiKEu1m7-104" value="$$+\infty$$" style="ellipse;whiteSpace=wrap;html=1;aspect=fixed;" vertex="1" parent="1">
          <mxGeometry x="581.5" y="1396" width="29" height="29" as="geometry" />
        </mxCell>
        <mxCell id="ySu2Nr1dZMbkxiKEu1m7-105" value="3" style="ellipse;whiteSpace=wrap;html=1;aspect=fixed;fillColor=#FFFFFF;" vertex="1" parent="1">
          <mxGeometry x="487.5" y="1396" width="29" height="29" as="geometry" />
        </mxCell>
        <mxCell id="ySu2Nr1dZMbkxiKEu1m7-106" value="8" style="ellipse;whiteSpace=wrap;html=1;aspect=fixed;fillColor=#FFFFFF;" vertex="1" parent="1">
          <mxGeometry x="532" y="1396" width="29" height="29" as="geometry" />
        </mxCell>
        <mxCell id="ySu2Nr1dZMbkxiKEu1m7-107" value="6 的右子树 8 代替 6" style="text;html=1;strokeColor=none;fillColor=none;align=center;verticalAlign=middle;whiteSpace=wrap;rounded=0;" vertex="1" parent="1">
          <mxGeometry x="472.5" y="1490" width="118.5" height="20" as="geometry" />
        </mxCell>
        <mxCell id="ySu2Nr1dZMbkxiKEu1m7-110" value="" style="rounded=0;whiteSpace=wrap;html=1;fillColor=none;dashed=1;" vertex="1" parent="1">
          <mxGeometry x="507" y="1293" width="35" height="35" as="geometry" />
        </mxCell>
        <mxCell id="ySu2Nr1dZMbkxiKEu1m7-112" style="edgeStyle=none;rounded=0;orthogonalLoop=1;jettySize=auto;html=1;exitX=1;exitY=0.5;exitDx=0;exitDy=0;entryX=0;entryY=0.5;entryDx=0;entryDy=0;endArrow=classic;endFill=1;dashed=1;" edge="1" parent="1" source="ySu2Nr1dZMbkxiKEu1m7-86" target="ySu2Nr1dZMbkxiKEu1m7-106">
          <mxGeometry relative="1" as="geometry">
            <mxPoint x="299" y="1411.75" as="sourcePoint" />
            <mxPoint x="517" y="1311.75" as="targetPoint" />
          </mxGeometry>
        </mxCell>
        <mxCell id="ySu2Nr1dZMbkxiKEu1m7-130" style="edgeStyle=none;rounded=0;orthogonalLoop=1;jettySize=auto;html=1;exitX=0;exitY=1;exitDx=0;exitDy=0;entryX=0.5;entryY=0;entryDx=0;entryDy=0;endArrow=none;endFill=0;" edge="1" parent="1" source="ySu2Nr1dZMbkxiKEu1m7-132" target="ySu2Nr1dZMbkxiKEu1m7-135">
          <mxGeometry relative="1" as="geometry" />
        </mxCell>
        <mxCell id="ySu2Nr1dZMbkxiKEu1m7-132" value="5" style="ellipse;whiteSpace=wrap;html=1;aspect=fixed;" vertex="1" parent="1">
          <mxGeometry x="337.5" y="1631" width="29" height="29" as="geometry" />
        </mxCell>
        <mxCell id="ySu2Nr1dZMbkxiKEu1m7-133" style="edgeStyle=none;rounded=0;orthogonalLoop=1;jettySize=auto;html=1;exitX=0;exitY=1;exitDx=0;exitDy=0;entryX=0;entryY=0.5;entryDx=0;entryDy=0;endArrow=none;endFill=0;" edge="1" parent="1" source="ySu2Nr1dZMbkxiKEu1m7-135" target="ySu2Nr1dZMbkxiKEu1m7-143">
          <mxGeometry relative="1" as="geometry" />
        </mxCell>
        <mxCell id="ySu2Nr1dZMbkxiKEu1m7-134" style="edgeStyle=none;rounded=0;orthogonalLoop=1;jettySize=auto;html=1;endArrow=none;endFill=0;entryX=1;entryY=1;entryDx=0;entryDy=0;exitX=0.5;exitY=0;exitDx=0;exitDy=0;" edge="1" parent="1" source="ySu2Nr1dZMbkxiKEu1m7-145" target="ySu2Nr1dZMbkxiKEu1m7-135">
          <mxGeometry relative="1" as="geometry">
            <mxPoint x="326.0393746638531" y="1712.2" as="targetPoint" />
            <mxPoint x="334.5" y="1733" as="sourcePoint" />
          </mxGeometry>
        </mxCell>
        <mxCell id="ySu2Nr1dZMbkxiKEu1m7-135" value="2" style="ellipse;whiteSpace=wrap;html=1;aspect=fixed;" vertex="1" parent="1">
          <mxGeometry x="294.5" y="1683" width="29" height="29" as="geometry" />
        </mxCell>
        <mxCell id="ySu2Nr1dZMbkxiKEu1m7-136" style="edgeStyle=none;rounded=0;orthogonalLoop=1;jettySize=auto;html=1;exitX=0;exitY=1;exitDx=0;exitDy=0;entryX=0.5;entryY=0;entryDx=0;entryDy=0;endArrow=none;endFill=0;" edge="1" parent="1" source="ySu2Nr1dZMbkxiKEu1m7-146" target="ySu2Nr1dZMbkxiKEu1m7-140">
          <mxGeometry relative="1" as="geometry" />
        </mxCell>
        <mxCell id="ySu2Nr1dZMbkxiKEu1m7-137" style="edgeStyle=none;rounded=0;orthogonalLoop=1;jettySize=auto;html=1;exitX=1;exitY=1;exitDx=0;exitDy=0;entryX=0.5;entryY=0;entryDx=0;entryDy=0;endArrow=none;endFill=0;" edge="1" parent="1" source="ySu2Nr1dZMbkxiKEu1m7-138" target="ySu2Nr1dZMbkxiKEu1m7-144">
          <mxGeometry relative="1" as="geometry" />
        </mxCell>
        <mxCell id="ySu2Nr1dZMbkxiKEu1m7-138" value="9" style="ellipse;whiteSpace=wrap;html=1;aspect=fixed;" vertex="1" parent="1">
          <mxGeometry x="415.5" y="1734" width="29" height="29" as="geometry" />
        </mxCell>
        <mxCell id="ySu2Nr1dZMbkxiKEu1m7-140" value="6" style="ellipse;whiteSpace=wrap;html=1;aspect=fixed;" vertex="1" parent="1">
          <mxGeometry x="363.5" y="1734" width="29" height="29" as="geometry" />
        </mxCell>
        <mxCell id="ySu2Nr1dZMbkxiKEu1m7-141" value="1" style="ellipse;whiteSpace=wrap;html=1;aspect=fixed;" vertex="1" parent="1">
          <mxGeometry x="289.5" y="1780" width="29" height="29" as="geometry" />
        </mxCell>
        <mxCell id="ySu2Nr1dZMbkxiKEu1m7-142" style="edgeStyle=none;rounded=0;orthogonalLoop=1;jettySize=auto;html=1;exitX=1;exitY=0;exitDx=0;exitDy=0;entryX=0.5;entryY=0;entryDx=0;entryDy=0;endArrow=none;endFill=0;" edge="1" parent="1" source="ySu2Nr1dZMbkxiKEu1m7-143" target="ySu2Nr1dZMbkxiKEu1m7-141">
          <mxGeometry relative="1" as="geometry" />
        </mxCell>
        <mxCell id="ySu2Nr1dZMbkxiKEu1m7-143" value="$$-\infty$$" style="ellipse;whiteSpace=wrap;html=1;aspect=fixed;direction=south;" vertex="1" parent="1">
          <mxGeometry x="260.5" y="1734" width="29" height="29" as="geometry" />
        </mxCell>
        <mxCell id="ySu2Nr1dZMbkxiKEu1m7-144" value="$$+\infty$$" style="ellipse;whiteSpace=wrap;html=1;aspect=fixed;" vertex="1" parent="1">
          <mxGeometry x="437" y="1780" width="29" height="29" as="geometry" />
        </mxCell>
        <mxCell id="ySu2Nr1dZMbkxiKEu1m7-145" value="3" style="ellipse;whiteSpace=wrap;html=1;aspect=fixed;fillColor=#FFFFFF;" vertex="1" parent="1">
          <mxGeometry x="323.5" y="1734" width="29" height="29" as="geometry" />
        </mxCell>
        <mxCell id="ySu2Nr1dZMbkxiKEu1m7-147" style="edgeStyle=none;rounded=0;orthogonalLoop=1;jettySize=auto;html=1;exitX=0;exitY=0;exitDx=0;exitDy=0;endArrow=none;endFill=0;" edge="1" parent="1" source="ySu2Nr1dZMbkxiKEu1m7-146" target="ySu2Nr1dZMbkxiKEu1m7-132">
          <mxGeometry relative="1" as="geometry" />
        </mxCell>
        <mxCell id="ySu2Nr1dZMbkxiKEu1m7-149" style="edgeStyle=none;rounded=0;orthogonalLoop=1;jettySize=auto;html=1;exitX=1;exitY=1;exitDx=0;exitDy=0;endArrow=none;endFill=0;" edge="1" parent="1" source="ySu2Nr1dZMbkxiKEu1m7-146" target="ySu2Nr1dZMbkxiKEu1m7-138">
          <mxGeometry relative="1" as="geometry" />
        </mxCell>
        <mxCell id="ySu2Nr1dZMbkxiKEu1m7-146" value="8" style="ellipse;whiteSpace=wrap;html=1;aspect=fixed;fillColor=#FFFFFF;" vertex="1" parent="1">
          <mxGeometry x="384.5" y="1683" width="29" height="29" as="geometry" />
        </mxCell>
        <mxCell id="ySu2Nr1dZMbkxiKEu1m7-150" style="edgeStyle=none;rounded=0;orthogonalLoop=1;jettySize=auto;html=1;exitX=0;exitY=1;exitDx=0;exitDy=0;entryX=0.5;entryY=0;entryDx=0;entryDy=0;endArrow=none;endFill=0;" edge="1" parent="1" source="ySu2Nr1dZMbkxiKEu1m7-152" target="ySu2Nr1dZMbkxiKEu1m7-155">
          <mxGeometry relative="1" as="geometry" />
        </mxCell>
        <mxCell id="ySu2Nr1dZMbkxiKEu1m7-151" style="edgeStyle=none;rounded=0;orthogonalLoop=1;jettySize=auto;html=1;exitX=1;exitY=1;exitDx=0;exitDy=0;entryX=0.5;entryY=0;entryDx=0;entryDy=0;endArrow=none;endFill=0;" edge="1" parent="1" source="ySu2Nr1dZMbkxiKEu1m7-152" target="ySu2Nr1dZMbkxiKEu1m7-158">
          <mxGeometry relative="1" as="geometry" />
        </mxCell>
        <mxCell id="ySu2Nr1dZMbkxiKEu1m7-152" value="5" style="ellipse;whiteSpace=wrap;html=1;aspect=fixed;" vertex="1" parent="1">
          <mxGeometry x="593.5" y="1631" width="29" height="29" as="geometry" />
        </mxCell>
        <mxCell id="ySu2Nr1dZMbkxiKEu1m7-153" style="edgeStyle=none;rounded=0;orthogonalLoop=1;jettySize=auto;html=1;exitX=0;exitY=1;exitDx=0;exitDy=0;entryX=0;entryY=0.5;entryDx=0;entryDy=0;endArrow=none;endFill=0;" edge="1" parent="1" source="ySu2Nr1dZMbkxiKEu1m7-155" target="ySu2Nr1dZMbkxiKEu1m7-163">
          <mxGeometry relative="1" as="geometry" />
        </mxCell>
        <mxCell id="ySu2Nr1dZMbkxiKEu1m7-154" style="edgeStyle=none;rounded=0;orthogonalLoop=1;jettySize=auto;html=1;endArrow=none;endFill=0;entryX=1;entryY=1;entryDx=0;entryDy=0;exitX=0.5;exitY=0;exitDx=0;exitDy=0;" edge="1" parent="1" source="ySu2Nr1dZMbkxiKEu1m7-165" target="ySu2Nr1dZMbkxiKEu1m7-155">
          <mxGeometry relative="1" as="geometry">
            <mxPoint x="582.0393746638531" y="1712.2" as="targetPoint" />
            <mxPoint x="590.5" y="1733" as="sourcePoint" />
          </mxGeometry>
        </mxCell>
        <mxCell id="ySu2Nr1dZMbkxiKEu1m7-155" value="2" style="ellipse;whiteSpace=wrap;html=1;aspect=fixed;" vertex="1" parent="1">
          <mxGeometry x="550.5" y="1683" width="29" height="29" as="geometry" />
        </mxCell>
        <mxCell id="ySu2Nr1dZMbkxiKEu1m7-156" style="edgeStyle=none;rounded=0;orthogonalLoop=1;jettySize=auto;html=1;exitX=0;exitY=1;exitDx=0;exitDy=0;entryX=0.5;entryY=0;entryDx=0;entryDy=0;endArrow=none;endFill=0;" edge="1" parent="1" source="ySu2Nr1dZMbkxiKEu1m7-158" target="ySu2Nr1dZMbkxiKEu1m7-160">
          <mxGeometry relative="1" as="geometry" />
        </mxCell>
        <mxCell id="ySu2Nr1dZMbkxiKEu1m7-157" style="edgeStyle=none;rounded=0;orthogonalLoop=1;jettySize=auto;html=1;exitX=1;exitY=1;exitDx=0;exitDy=0;entryX=0.5;entryY=0;entryDx=0;entryDy=0;endArrow=none;endFill=0;" edge="1" parent="1" source="ySu2Nr1dZMbkxiKEu1m7-158" target="ySu2Nr1dZMbkxiKEu1m7-164">
          <mxGeometry relative="1" as="geometry" />
        </mxCell>
        <mxCell id="ySu2Nr1dZMbkxiKEu1m7-158" value="9" style="ellipse;whiteSpace=wrap;html=1;aspect=fixed;" vertex="1" parent="1">
          <mxGeometry x="644.5" y="1683" width="29" height="29" as="geometry" />
        </mxCell>
        <mxCell id="ySu2Nr1dZMbkxiKEu1m7-159" value="" style="edgeStyle=none;rounded=0;orthogonalLoop=1;jettySize=auto;html=1;endArrow=none;endFill=0;" edge="1" parent="1" source="ySu2Nr1dZMbkxiKEu1m7-160" target="ySu2Nr1dZMbkxiKEu1m7-166">
          <mxGeometry relative="1" as="geometry" />
        </mxCell>
        <mxCell id="ySu2Nr1dZMbkxiKEu1m7-160" value="6" style="ellipse;whiteSpace=wrap;html=1;aspect=fixed;" vertex="1" parent="1">
          <mxGeometry x="619.5" y="1734" width="29" height="29" as="geometry" />
        </mxCell>
        <mxCell id="ySu2Nr1dZMbkxiKEu1m7-161" value="1" style="ellipse;whiteSpace=wrap;html=1;aspect=fixed;" vertex="1" parent="1">
          <mxGeometry x="545.5" y="1780" width="29" height="29" as="geometry" />
        </mxCell>
        <mxCell id="ySu2Nr1dZMbkxiKEu1m7-162" style="edgeStyle=none;rounded=0;orthogonalLoop=1;jettySize=auto;html=1;exitX=1;exitY=0;exitDx=0;exitDy=0;entryX=0.5;entryY=0;entryDx=0;entryDy=0;endArrow=none;endFill=0;" edge="1" parent="1" source="ySu2Nr1dZMbkxiKEu1m7-163" target="ySu2Nr1dZMbkxiKEu1m7-161">
          <mxGeometry relative="1" as="geometry" />
        </mxCell>
        <mxCell id="ySu2Nr1dZMbkxiKEu1m7-163" value="$$-\infty$$" style="ellipse;whiteSpace=wrap;html=1;aspect=fixed;direction=south;" vertex="1" parent="1">
          <mxGeometry x="516.5" y="1734" width="29" height="29" as="geometry" />
        </mxCell>
        <mxCell id="ySu2Nr1dZMbkxiKEu1m7-164" value="$$+\infty$$" style="ellipse;whiteSpace=wrap;html=1;aspect=fixed;" vertex="1" parent="1">
          <mxGeometry x="673.5" y="1734" width="29" height="29" as="geometry" />
        </mxCell>
        <mxCell id="ySu2Nr1dZMbkxiKEu1m7-165" value="3" style="ellipse;whiteSpace=wrap;html=1;aspect=fixed;fillColor=#FFFFFF;" vertex="1" parent="1">
          <mxGeometry x="579.5" y="1734" width="29" height="29" as="geometry" />
        </mxCell>
        <mxCell id="ySu2Nr1dZMbkxiKEu1m7-166" value="8" style="ellipse;whiteSpace=wrap;html=1;aspect=fixed;fillColor=#FFFFFF;" vertex="1" parent="1">
          <mxGeometry x="648.5" y="1780" width="29" height="29" as="geometry" />
        </mxCell>
        <mxCell id="ySu2Nr1dZMbkxiKEu1m7-173" style="edgeStyle=none;rounded=0;orthogonalLoop=1;jettySize=auto;html=1;exitX=0;exitY=1;exitDx=0;exitDy=0;entryX=1;entryY=0;entryDx=0;entryDy=0;endArrow=none;endFill=0;" edge="1" parent="1" source="ySu2Nr1dZMbkxiKEu1m7-167" target="ySu2Nr1dZMbkxiKEu1m7-168">
          <mxGeometry relative="1" as="geometry" />
        </mxCell>
        <mxCell id="ySu2Nr1dZMbkxiKEu1m7-167" value="" style="ellipse;whiteSpace=wrap;html=1;aspect=fixed;" vertex="1" parent="1">
          <mxGeometry x="882" y="1468" width="29" height="29" as="geometry" />
        </mxCell>
        <mxCell id="ySu2Nr1dZMbkxiKEu1m7-174" style="edgeStyle=none;rounded=0;orthogonalLoop=1;jettySize=auto;html=1;exitX=0;exitY=1;exitDx=0;exitDy=0;entryX=1;entryY=0;entryDx=0;entryDy=0;endArrow=none;endFill=0;" edge="1" parent="1" source="ySu2Nr1dZMbkxiKEu1m7-168" target="ySu2Nr1dZMbkxiKEu1m7-169">
          <mxGeometry relative="1" as="geometry" />
        </mxCell>
        <mxCell id="ySu2Nr1dZMbkxiKEu1m7-177" style="edgeStyle=none;rounded=0;orthogonalLoop=1;jettySize=auto;html=1;exitX=1;exitY=1;exitDx=0;exitDy=0;entryX=0;entryY=0;entryDx=0;entryDy=0;endArrow=none;endFill=0;" edge="1" parent="1" source="ySu2Nr1dZMbkxiKEu1m7-168" target="ySu2Nr1dZMbkxiKEu1m7-172">
          <mxGeometry relative="1" as="geometry" />
        </mxCell>
        <mxCell id="ySu2Nr1dZMbkxiKEu1m7-168" value="&lt;font face=&quot;Comic Sans MS&quot;&gt;y&lt;/font&gt;" style="ellipse;whiteSpace=wrap;html=1;aspect=fixed;fillColor=#dae8fc;strokeColor=#6c8ebf;" vertex="1" parent="1">
          <mxGeometry x="835" y="1513" width="29" height="29" as="geometry" />
        </mxCell>
        <mxCell id="ySu2Nr1dZMbkxiKEu1m7-175" style="edgeStyle=none;rounded=0;orthogonalLoop=1;jettySize=auto;html=1;exitX=0;exitY=1;exitDx=0;exitDy=0;entryX=1;entryY=0;entryDx=0;entryDy=0;endArrow=none;endFill=0;" edge="1" parent="1" source="ySu2Nr1dZMbkxiKEu1m7-169" target="ySu2Nr1dZMbkxiKEu1m7-170">
          <mxGeometry relative="1" as="geometry" />
        </mxCell>
        <mxCell id="ySu2Nr1dZMbkxiKEu1m7-176" style="edgeStyle=none;rounded=0;orthogonalLoop=1;jettySize=auto;html=1;exitX=1;exitY=1;exitDx=0;exitDy=0;endArrow=none;endFill=0;" edge="1" parent="1" source="ySu2Nr1dZMbkxiKEu1m7-169" target="ySu2Nr1dZMbkxiKEu1m7-171">
          <mxGeometry relative="1" as="geometry" />
        </mxCell>
        <mxCell id="ySu2Nr1dZMbkxiKEu1m7-169" value="&lt;font face=&quot;Comic Sans MS&quot;&gt;x&lt;/font&gt;" style="ellipse;whiteSpace=wrap;html=1;aspect=fixed;" vertex="1" parent="1">
          <mxGeometry x="788" y="1557" width="29" height="29" as="geometry" />
        </mxCell>
        <mxCell id="ySu2Nr1dZMbkxiKEu1m7-170" value="&lt;font face=&quot;Comic Sans MS&quot;&gt;A&lt;/font&gt;" style="ellipse;whiteSpace=wrap;html=1;aspect=fixed;fillColor=#B3B3B3;" vertex="1" parent="1">
          <mxGeometry x="738" y="1607" width="29" height="29" as="geometry" />
        </mxCell>
        <mxCell id="ySu2Nr1dZMbkxiKEu1m7-171" value="&lt;font face=&quot;Comic Sans MS&quot;&gt;B&lt;/font&gt;" style="ellipse;whiteSpace=wrap;html=1;aspect=fixed;fillColor=#B3B3B3;" vertex="1" parent="1">
          <mxGeometry x="837" y="1607" width="29" height="29" as="geometry" />
        </mxCell>
        <mxCell id="ySu2Nr1dZMbkxiKEu1m7-172" value="&lt;font face=&quot;Comic Sans MS&quot;&gt;C&lt;/font&gt;" style="ellipse;whiteSpace=wrap;html=1;aspect=fixed;fillColor=#B3B3B3;" vertex="1" parent="1">
          <mxGeometry x="882" y="1557" width="29" height="29" as="geometry" />
        </mxCell>
        <mxCell id="ySu2Nr1dZMbkxiKEu1m7-178" style="edgeStyle=none;rounded=0;orthogonalLoop=1;jettySize=auto;html=1;exitX=0;exitY=1;exitDx=0;exitDy=0;entryX=1;entryY=0;entryDx=0;entryDy=0;endArrow=none;endFill=0;" edge="1" parent="1" source="ySu2Nr1dZMbkxiKEu1m7-179" target="ySu2Nr1dZMbkxiKEu1m7-182">
          <mxGeometry relative="1" as="geometry" />
        </mxCell>
        <mxCell id="ySu2Nr1dZMbkxiKEu1m7-179" value="" style="ellipse;whiteSpace=wrap;html=1;aspect=fixed;" vertex="1" parent="1">
          <mxGeometry x="1110" y="1466" width="29" height="29" as="geometry" />
        </mxCell>
        <mxCell id="ySu2Nr1dZMbkxiKEu1m7-181" style="edgeStyle=none;rounded=0;orthogonalLoop=1;jettySize=auto;html=1;entryX=1;entryY=0;entryDx=0;entryDy=0;endArrow=none;endFill=0;exitX=0;exitY=1;exitDx=0;exitDy=0;" edge="1" parent="1" source="ySu2Nr1dZMbkxiKEu1m7-182" target="ySu2Nr1dZMbkxiKEu1m7-188">
          <mxGeometry relative="1" as="geometry">
            <mxPoint x="1060" y="1564" as="sourcePoint" />
          </mxGeometry>
        </mxCell>
        <mxCell id="ySu2Nr1dZMbkxiKEu1m7-189" style="edgeStyle=none;rounded=0;orthogonalLoop=1;jettySize=auto;html=1;exitX=1;exitY=1;exitDx=0;exitDy=0;entryX=0;entryY=0;entryDx=0;entryDy=0;endArrow=none;endFill=0;" edge="1" parent="1" source="ySu2Nr1dZMbkxiKEu1m7-182" target="ySu2Nr1dZMbkxiKEu1m7-185">
          <mxGeometry relative="1" as="geometry" />
        </mxCell>
        <mxCell id="ySu2Nr1dZMbkxiKEu1m7-182" value="&lt;font face=&quot;Comic Sans MS&quot;&gt;x&lt;/font&gt;" style="ellipse;whiteSpace=wrap;html=1;aspect=fixed;fillColor=#dae8fc;strokeColor=#6c8ebf;" vertex="1" parent="1">
          <mxGeometry x="1065" y="1511" width="29" height="29" as="geometry" />
        </mxCell>
        <mxCell id="ySu2Nr1dZMbkxiKEu1m7-183" style="edgeStyle=none;rounded=0;orthogonalLoop=1;jettySize=auto;html=1;exitX=0;exitY=1;exitDx=0;exitDy=0;entryX=1;entryY=0;entryDx=0;entryDy=0;endArrow=none;endFill=0;" edge="1" parent="1" source="ySu2Nr1dZMbkxiKEu1m7-185" target="ySu2Nr1dZMbkxiKEu1m7-186">
          <mxGeometry relative="1" as="geometry" />
        </mxCell>
        <mxCell id="ySu2Nr1dZMbkxiKEu1m7-184" style="edgeStyle=none;rounded=0;orthogonalLoop=1;jettySize=auto;html=1;exitX=1;exitY=1;exitDx=0;exitDy=0;endArrow=none;endFill=0;" edge="1" parent="1" source="ySu2Nr1dZMbkxiKEu1m7-185" target="ySu2Nr1dZMbkxiKEu1m7-187">
          <mxGeometry relative="1" as="geometry" />
        </mxCell>
        <mxCell id="ySu2Nr1dZMbkxiKEu1m7-185" value="&lt;font face=&quot;Comic Sans MS&quot;&gt;y&lt;/font&gt;" style="ellipse;whiteSpace=wrap;html=1;aspect=fixed;" vertex="1" parent="1">
          <mxGeometry x="1110" y="1555" width="29" height="29" as="geometry" />
        </mxCell>
        <mxCell id="ySu2Nr1dZMbkxiKEu1m7-186" value="&lt;font face=&quot;Comic Sans MS&quot;&gt;B&lt;/font&gt;" style="ellipse;whiteSpace=wrap;html=1;aspect=fixed;fillColor=#B3B3B3;" vertex="1" parent="1">
          <mxGeometry x="1065" y="1605" width="29" height="29" as="geometry" />
        </mxCell>
        <mxCell id="ySu2Nr1dZMbkxiKEu1m7-187" value="&lt;font face=&quot;Comic Sans MS&quot;&gt;C&lt;/font&gt;" style="ellipse;whiteSpace=wrap;html=1;aspect=fixed;fillColor=#B3B3B3;" vertex="1" parent="1">
          <mxGeometry x="1160" y="1605" width="29" height="29" as="geometry" />
        </mxCell>
        <mxCell id="ySu2Nr1dZMbkxiKEu1m7-188" value="&lt;font face=&quot;Comic Sans MS&quot;&gt;A&lt;/font&gt;" style="ellipse;whiteSpace=wrap;html=1;aspect=fixed;fillColor=#B3B3B3;" vertex="1" parent="1">
          <mxGeometry x="1023" y="1555" width="29" height="29" as="geometry" />
        </mxCell>
        <mxCell id="ySu2Nr1dZMbkxiKEu1m7-192" value="" style="endArrow=classic;html=1;" edge="1" parent="1">
          <mxGeometry width="50" height="50" relative="1" as="geometry">
            <mxPoint x="929" y="1539.2" as="sourcePoint" />
            <mxPoint x="1001" y="1539.2" as="targetPoint" />
          </mxGeometry>
        </mxCell>
        <mxCell id="ySu2Nr1dZMbkxiKEu1m7-193" value="右旋 zig(y)" style="text;html=1;strokeColor=none;fillColor=none;align=center;verticalAlign=middle;whiteSpace=wrap;rounded=0;dashed=1;" vertex="1" parent="1">
          <mxGeometry x="932" y="1515.5" width="66" height="20" as="geometry" />
        </mxCell>
        <mxCell id="ySu2Nr1dZMbkxiKEu1m7-194" value="" style="endArrow=classic;html=1;" edge="1" parent="1">
          <mxGeometry width="50" height="50" relative="1" as="geometry">
            <mxPoint x="998" y="1614" as="sourcePoint" />
            <mxPoint x="931" y="1614" as="targetPoint" />
          </mxGeometry>
        </mxCell>
        <mxCell id="ySu2Nr1dZMbkxiKEu1m7-195" value="左旋 zag(x)" style="text;html=1;strokeColor=none;fillColor=none;align=center;verticalAlign=middle;whiteSpace=wrap;rounded=0;dashed=1;" vertex="1" parent="1">
          <mxGeometry x="935" y="1582.5" width="66" height="20" as="geometry" />
        </mxCell>
      </root>
    </mxGraphModel>
  </diagram>
</mxfile>
